<svg xmlns="http://www.w3.org/2000/svg" width="240" height="200" viewBox="0 0 120 100" style="overflow:visible" aria-hidden="true"><ellipse cx="60" cy="89" rx="32" ry="3.5" fill="#1A3A48" opacity=".08"></ellipse><path d="M96 30 c-2 -3 -7 -1 -5 3 l5 5 5 -5 c2 -4 -3 -6 -5 -3 z" fill="#F4A6B6"></path><path style="animation-delay:1.1s" d="M24 34 c-1.5 -2.2 -5 -.8 -3.7 2.2 l3.7 3.7 3.7 -3.7 c1.3 -3 -2.2 -4.4 -3.7 -2.2 z" fill="#F4A6B6"></path><g><g fill="#34405E" stroke="#34405E" stroke-width="6" stroke-linejoin="round"><rect x="14" y="46" width="92" height="34" rx="17"></rect><circle cx="38" cy="50" r="20"></circle><circle cx="62" cy="40" r="26"></circle><circle cx="86" cy="52" r="18"></circle></g><g fill="#86CCE8"><rect x="14" y="46" width="92" height="34" rx="17"></rect><circle cx="38" cy="50" r="20"></circle><circle cx="62" cy="40" r="26"></circle><circle cx="86" cy="52" r="18"></circle></g><ellipse cx="52" cy="28" rx="10" ry="5" fill="#fff" opacity="0.45"></ellipse><ellipse cx="41" cy="66" rx="6" ry="3.4" fill="#F4A6B6" opacity=".7"></ellipse><ellipse cx="79" cy="66" rx="6" ry="3.4" fill="#F4A6B6" opacity=".7"></ellipse><path d="M45 58 l5 3 -5 3 M75 58 l-5 3 5 3" stroke="#34405E" stroke-width="2.4" fill="none" stroke-linecap="round" stroke-linejoin="round"></path><path d="M55 66 Q60 71 65 66" stroke="#34405E" stroke-width="2.4" fill="none" stroke-linecap="round"></path></g></svg>