<svg xmlns="http://www.w3.org/2000/svg" width="240" height="200" viewBox="0 0 120 100" style="overflow:visible" aria-hidden="true"><g transform="translate(24 0)"><path style="animation-delay:0s" d="M0 -5 C4 -2 3 3 0 5 C-3 3 -4 -2 0 -5 Z" fill="#F7B9C8"></path></g><g transform="translate(62 0)"><path style="animation-delay:1.4s" d="M0 -5 C4 -2 3 3 0 5 C-3 3 -4 -2 0 -5 Z" fill="#F7B9C8"></path></g><g transform="translate(96 0)"><path style="animation-delay:2.8s" d="M0 -5 C4 -2 3 3 0 5 C-3 3 -4 -2 0 -5 Z" fill="#F7B9C8"></path></g><g transform="translate(44 0)"><path style="animation-delay:3.6s" d="M0 -5 C4 -2 3 3 0 5 C-3 3 -4 -2 0 -5 Z" fill="#F7B9C8"></path></g><ellipse cx="60" cy="89" rx="32" ry="3.5" fill="#1A3A48" opacity=".08"></ellipse><path d="M84 52 q3 -4 0 -8 q-3 -4 0 -8" stroke="#B4B2A9" stroke-width="2" fill="none" stroke-linecap="round"></path><path style="animation-delay:1.2s" d="M90 52 q3 -4 0 -8 q-3 -4 0 -8" stroke="#B4B2A9" stroke-width="2" fill="none" stroke-linecap="round"></path><g><g fill="#34405E" stroke="#34405E" stroke-width="6" stroke-linejoin="round"><rect x="14" y="46" width="92" height="34" rx="17"></rect><circle cx="38" cy="50" r="20"></circle><circle cx="62" cy="40" r="26"></circle><circle cx="86" cy="52" r="18"></circle></g><g fill="#86CCE8"><rect x="14" y="46" width="92" height="34" rx="17"></rect><circle cx="38" cy="50" r="20"></circle><circle cx="62" cy="40" r="26"></circle><circle cx="86" cy="52" r="18"></circle></g><ellipse cx="52" cy="28" rx="10" ry="5" fill="#fff" opacity="0.45"></ellipse><path d="M46 60 Q50 56 54 60 M66 60 Q70 56 74 60" stroke="#34405E" stroke-width="2.4" fill="none" stroke-linecap="round"></path><ellipse cx="42" cy="66" rx="5.5" ry="3.2" fill="#F4A6B6" opacity=".6"></ellipse><ellipse cx="78" cy="66" rx="5.5" ry="3.2" fill="#F4A6B6" opacity=".6"></ellipse><path d="M56 67 Q60 70 64 67" stroke="#34405E" stroke-width="2.4" fill="none" stroke-linecap="round"></path></g><path d="M95 59 a4 4 0 0 1 0 8" stroke="#34405E" stroke-width="2.2" fill="none"></path><path d="M79 56 h16 l-2 14 a4 4 0 0 1 -4 3 h-4 a4 4 0 0 1 -4 -3 z" fill="#FFFBF4" stroke="#34405E" stroke-width="2" stroke-linejoin="round"></path></svg>